<svg version="1" xmlns="http://www.w3.org/2000/svg" width="1180" height="1180" viewBox="0 0 885.000000 885.000000"><path d="M31 442.5V885h106.5c58.6 0 106.5-.3 106.6-.8 0-.4 0-28.8-.1-63.2v-64-32-16-16-16-16-16-16-16-16-16-16-32.5c0-1.1 0-8.4.1-16.2 0-12 .2-14.1 1.4-13.6.8.3 1.5 0 1.5-.5 0-.6 1-.9 2.3-.6 1.2.3 4.9.5 8.2.4 3.3-.1 6.5-.2 7-.1 2.5.2 9.1.3 10 .1.6-.1 1.3-.2 1.6-.2.3.1 3.4.1 7 .1 12.8.1 14.1.1 22.4 0 3.3-.1 6.5-.1 7 0 2.5.2 9.1.3 10 .1.6-.1 1.3-.2 1.6-.2.3.1 3.4.1 7 .1 12.8.1 14.1.1 22.4 0 3.3-.1 6.5-.1 7 0 2.5.2 9.1.3 10 .1.6-.1 1.3-.2 1.6-.2.3.1 3.4.1 7 .1 12.8.1 14.1.1 22.4 0 3.3-.1 6.5-.1 7 0 2.5.2 9.1.3 10 .1.6-.1 1.3-.2 1.6-.2.3.1 3.4.1 7 .1 12.8.1 14.1.1 22.4 0 3.3-.1 6.5-.1 7 0 2.5.2 9.1.3 10 .1.6-.1 1.3-.2 1.6-.2.3.1 3.4.1 7 .1 12.8.1 14.1.1 22.4 0 3.3-.1 6.5-.1 7 0 2.5.2 9.1.3 10 .1.6-.1 1.3-.2 1.6-.2.3.1 3.4.1 7 .1 12.8.1 14.1.1 22.4 0 3.3-.1 6.5-.1 7 0 2.5.2 9.1.3 10 .1.6-.1 1.3-.2 1.6-.2.3.1 3.4.1 7 .1 12.8.1 14.1.1 22.4 0 3.3-.1 6.5-.1 7 0 2.5.2 9.1.3 10 .1.6-.1 1.3-.2 1.6-.2.6.1 12.2.2 14.9.2.8 0 3.6 0 6.1.1 2.5.1 5.1-.1 5.7-.5.6-.3 1.3-.3 1.6.2.2.4.5 58.1.5 128.2s0 156.2.1 191.2V885h213V0H641v3.7c-.1 2.1-.1 79.7-.1 172.5V345h-5.2c-6.7.1-381.9.1-387.3 0h-4.2V174.7c-.1-93.6-.1-171.2-.1-172.5L244 0H31v442.5z"/></svg>